<?xml version="1.0" encoding="UTF-8"?>
<svg id="Layer_1" xmlns="http://www.w3.org/2000/svg" viewBox="0 0 808.41 897.25">
  <path fill="#3b82f6" d="M223.57,683.58h584.6v213.67H0v-106.77c0-211.45,82.4-410.15,231.98-559.48,5.81-5.81,11.75-11.51,17.69-17.07H.49V.25h776.25c1.24-.12,2.6-.12,3.83-.12,3.71,0,7.43,0,11.26-.12l16.58.25-.37,213.67h-31.67c-148.59,3.46-287.78,62.98-393.44,168.39-83.52,83.39-138.32,187.69-159.36,301.27Z"/>
  <path fill="#55b2ff" d="M776.74.25c-79.31,2.97-296.32,29.07-527.07,213.67H.49V.25h776.25Z"/>
  <rect fill="#3b82f6" x="431.94" y="212.09" width="539.04" height="213.92" transform="translate(1020.5 -382.41) rotate(90)"/>
</svg>
